<?xml version="1.0" encoding="iso-8859-1"?>
<!-- Generator: Adobe Illustrator 19.0.0, SVG Export Plug-In . SVG Version: 6.00 Build 0)  -->
<svg version="1.1" id="Layer_1" xmlns="http://www.w3.org/2000/svg" xmlns:xlink="http://www.w3.org/1999/xlink" x="0px" y="0px"
	 viewBox="0 0 512 512" style="enable-background:new 0 0 512 512;" xml:space="preserve">
<rect x="92.411" y="87.149" style="fill:#875B51;" width="38.128" height="114.568"/>
<polygon style="fill:#AAC36D;" points="440.473,241.25 468.426,241.25 410.733,141.022 433.021,131.181 362.213,8.17 
	329.532,208.569 362.213,351.319 503.83,351.319 "/>
<polygon style="fill:#CAED73;" points="362.213,351.319 220.596,351.319 283.953,241.25 256,241.25 319.357,131.181 
	291.404,131.181 362.213,8.17 "/>
<polygon style="fill:#FFD686;" points="196.085,87.149 29.957,253.277 62.638,296.851 329.532,296.851 362.213,253.277 "/>
<polygon style="fill:#FFE0A2;" points="329.532,253.277 196.085,296.851 62.638,253.277 196.085,119.83 "/>
<polygon style="fill:#FE9528;" points="362.213,384 362.213,416.681 329.532,416.681 307.745,362.213 "/>
<polygon style="fill:#FFA850;" points="362.213,351.319 362.213,384 329.532,384 307.745,329.532 "/>
<polygon style="fill:#FE9528;" points="362.213,318.638 362.213,351.319 329.532,351.319 307.745,296.851 "/>
<polygon style="fill:#FFA850;" points="362.213,285.957 362.213,318.638 329.532,318.638 307.745,264.17 "/>
<polygon style="fill:#FE9528;" points="362.213,253.277 362.213,285.957 329.532,285.957 307.745,269.617 329.532,253.277 "/>
<polygon style="fill:#FFA850;" points="329.532,384 329.532,416.681 247.83,416.681 226.043,362.213 "/>
<polygon style="fill:#FEC14D;" points="329.532,351.319 329.532,384 247.83,384 226.043,329.532 "/>
<polygon style="fill:#FFA850;" points="329.532,318.638 329.532,351.319 247.83,351.319 226.043,296.851 "/>
<polygon style="fill:#FEC14D;" points="329.532,285.957 329.532,318.638 247.83,318.638 226.043,264.17 "/>
<g>
	<rect x="247.83" y="253.277" style="fill:#FFA850;" width="81.702" height="32.681"/>
	<polygon style="fill:#FFA850;" points="29.957,384 29.957,416.681 144.34,416.681 166.128,362.213 	"/>
</g>
<polygon style="fill:#FEC14D;" points="29.957,351.319 29.957,384 144.34,384 166.128,329.532 "/>
<polygon style="fill:#FFA850;" points="29.957,318.638 29.957,351.319 144.34,351.319 166.128,296.851 "/>
<polygon style="fill:#FEC14D;" points="29.957,285.957 29.957,318.638 144.34,318.638 166.128,264.17 "/>
<rect x="29.957" y="253.277" style="fill:#FFA850;" width="114.383" height="32.681"/>
<polygon style="fill:#705147;" points="247.83,253.277 247.83,416.681 226.043,416.681 193.362,329.532 226.043,253.277 "/>
<rect x="144.34" y="253.277" style="fill:#875B51;" width="81.702" height="163.404"/>
<polygon style="fill:#AAC36D;" points="471.149,416.681 438.468,460.255 471.149,503.83 503.83,503.83 503.83,416.681 "/>
<rect x="8.17" y="416.681" style="fill:#CAED73;" width="462.979" height="87.149"/>
<path d="M291.404,139.356h13.821l-5.012,8.707c-2.251,3.911-0.906,8.906,3.004,11.157c3.91,2.25,8.906,0.905,11.157-3.004
	l12.061-20.954c1.455-2.528,1.452-5.641-0.008-8.166c-1.46-2.525-4.156-4.081-7.073-4.081h-13.821l56.678-98.467l56.678,98.467
	H405.07c-2.917,0-5.612,1.556-7.073,4.081c-1.46,2.525-1.463,5.637-0.008,8.166l56.306,97.821h-13.821
	c-2.917,0-5.612,1.556-7.073,4.081c-1.46,2.525-1.463,5.637-0.008,8.166l56.306,97.819h-94.806c-4.512,0-8.17,3.658-8.17,8.17
	c0,4.512,3.658,8.17,8.17,8.17H503.83c2.917,0,5.612-1.556,7.073-4.081c1.46-2.525,1.463-5.637,0.008-8.166l-56.306-97.82h13.821
	c2.917,0,5.612-1.556,7.073-4.081c1.46-2.525,1.463-5.637,0.008-8.166l-56.306-97.82h13.821c2.917,0,5.612-1.556,7.073-4.081
	c1.46-2.525,1.463-5.637,0.008-8.166L369.294,4.094C367.836,1.561,365.136,0,362.213,0c-2.923,0-5.623,1.561-7.081,4.094
	l-70.809,123.015c-1.455,2.528-1.452,5.641,0.008,8.166C285.792,137.801,288.487,139.356,291.404,139.356z"/>
<path d="M503.83,408.511H370.383V273.002l7.84,7.84c1.595,1.595,3.686,2.393,5.777,2.393c2.09,0,4.182-0.797,5.777-2.393
	c3.191-3.191,3.191-8.364,0-11.554L201.862,81.373c-3.191-3.191-8.364-3.191-11.554,0l-51.595,51.595v-45.82
	c0-4.512-3.658-8.17-8.17-8.17H92.415c-4.512,0-8.17,3.658-8.17,8.17v100.287L2.393,269.287c-3.191,3.191-3.191,8.364,0,11.554
	c3.191,3.191,8.364,3.191,11.554,0l7.84-7.839v135.509H8.17c-4.512,0-8.17,3.658-8.17,8.17c0,4.512,3.658,8.17,8.17,8.17h495.66
	c4.512,0,8.17-3.658,8.17-8.17C512,412.169,508.342,408.511,503.83,408.511z M70.809,310.468H38.128v-16.34h98.043v16.34h-32.681
	c-4.512,0-8.17,3.658-8.17,8.17c0,4.512,3.658,8.17,8.17,8.17h32.681v16.34H38.128v-16.34h32.681c4.512,0,8.17-3.658,8.17-8.17
	C78.979,314.126,75.321,310.468,70.809,310.468z M136.17,277.787H38.128v-16.34h98.043V277.787z M38.128,359.489h98.043v16.34
	H38.128V359.489z M152.511,318.649c0-0.022,0-32.681,0-32.681c0-0.022,0-24.522,0-24.522h87.149v89.861c0,0.022,0,32.681,0,32.681
	c0,0.022,0,24.522,0,24.522h-87.149V318.649z M354.043,261.447v16.34H256v-16.34H354.043z M256,294.128h98.043v16.34H256V294.128z
	 M256,326.809h98.043v16.34H256V326.809z M256,392.17h32.681c4.512,0,8.17-3.658,8.17-8.17c0-4.512-3.658-8.17-8.17-8.17H256v-16.34
	h98.043v16.34h-32.681c-4.512,0-8.17,3.658-8.17,8.17c0,4.512,3.658,8.17,8.17,8.17h32.681v16.34H256V392.17z M196.085,98.704
	l146.404,146.403H49.683l48.503-48.503C98.198,196.591,196.085,98.704,196.085,98.704z M100.585,95.319h21.787v53.989
	l-21.787,21.787V95.319z M38.128,392.17h98.043v16.34H38.128V392.17z"/>
<path d="M40.851,441.191c-4.512,0-8.17,3.658-8.17,8.17v10.894c0,4.512,3.658,8.17,8.17,8.17s8.17-3.658,8.17-8.17v-10.894
	C49.021,444.85,45.363,441.191,40.851,441.191z"/>
<path d="M73.532,484.766c-4.512,0-8.17,3.658-8.17,8.17v10.894c0,4.512,3.658,8.17,8.17,8.17c4.512,0,8.17-3.658,8.17-8.17v-10.894
	C81.702,488.424,78.044,484.766,73.532,484.766z"/>
<path d="M106.213,462.979c-4.512,0-8.17,3.658-8.17,8.17v10.894c0,4.512,3.658,8.17,8.17,8.17c4.512,0,8.17-3.658,8.17-8.17v-10.894
	C114.383,466.637,110.725,462.979,106.213,462.979z"/>
<path d="M471.149,441.191c-4.512,0-8.17,3.658-8.17,8.17v10.894c0,4.512,3.658,8.17,8.17,8.17c4.512,0,8.17-3.658,8.17-8.17v-10.894
	C479.319,444.85,475.661,441.191,471.149,441.191z"/>
<path d="M318.638,484.766c-4.512,0-8.17,3.658-8.17,8.17v10.894c0,4.512,3.658,8.17,8.17,8.17c4.512,0,8.17-3.658,8.17-8.17v-10.894
	C326.809,488.424,323.15,484.766,318.638,484.766z"/>
<path d="M351.319,462.979c-4.512,0-8.17,3.658-8.17,8.17v10.894c0,4.512,3.658,8.17,8.17,8.17c4.512,0,8.17-3.658,8.17-8.17v-10.894
	C359.489,466.637,355.831,462.979,351.319,462.979z"/>
<path d="M198.809,462.979c-4.512,0-8.17,3.658-8.17,8.17v10.894c0,4.512,3.658,8.17,8.17,8.17s8.17-3.658,8.17-8.17v-10.894
	C206.979,466.637,203.321,462.979,198.809,462.979z"/>
</svg>
